<svg width="509" height="453" viewBox="0 0 509 453" fill="none" xmlns="http://www.w3.org/2000/svg">
<path d="M127.721 60.1068C105.546 72.141 -110.072 201.057 73.3794 381.128C256.831 561.199 315.919 346.885 426.156 311.642C536.393 276.399 473.541 61.0545 360.009 24.683C258.811 -7.73406 174.726 34.5943 127.721 60.1068Z" fill="#2D32E2" fill-opacity="0.24"/>
<path d="M43.2491 286.94C56.6578 293.091 91.8522 311.268 102.104 336.734C102.246 337.088 102.498 337.388 102.824 337.587L110.09 341.991C110.307 342.123 110.55 342.205 110.802 342.234C111.054 342.262 111.31 342.235 111.551 342.155C115.727 340.761 138.543 336.555 191.798 384.182C192.83 385.106 194.116 385.698 195.488 385.882C196.861 386.066 198.258 385.832 199.496 385.213L289.692 340.017C289.965 339.881 290.197 339.677 290.367 339.424C290.536 339.171 290.637 338.879 290.659 338.575C290.682 338.272 290.625 337.968 290.494 337.693C290.364 337.418 290.164 337.182 289.914 337.008L250.483 309.341C250.255 309.18 249.991 309.076 249.714 309.038L46.0414 281.002C45.6926 280.955 45.3377 281.013 45.0222 281.169L43.1663 282.091C42.7122 282.317 42.3314 282.667 42.068 283.101C41.8046 283.535 41.6695 284.034 41.6781 284.542C41.6868 285.049 41.8389 285.543 42.1169 285.968C42.3949 286.392 42.7875 286.73 43.2491 286.94Z" fill="#2D32E2"/>
<path d="M321.085 302.196C424.378 302.196 508.113 291.224 508.113 277.689C508.113 264.155 424.378 253.183 321.085 253.183C217.792 253.183 134.057 264.155 134.057 277.689C134.057 291.224 217.792 302.196 321.085 302.196Z" fill="black"/>
<path d="M186.407 158.68C186.407 158.68 197.501 148.103 200.981 146.212C204.462 144.32 214.005 138.357 215.39 136.695C216.776 135.033 218.495 139.39 214.941 142.314C212.438 144.371 207.583 148.994 205.056 150.328L203.522 149.166C203.522 149.166 205.59 149.822 208.749 155.67C211.908 161.517 194.761 169.543 194.761 169.543L186.407 158.68Z" fill="white" stroke="black" stroke-width="1.12821" stroke-miterlimit="10"/>
<path d="M219.402 123.41C219.402 123.41 217.243 130.396 220.342 142.225C220.342 142.225 208.152 127.423 219.509 119.212L219.402 123.41Z" fill="url(#paint0_linear)"/>
<path d="M222.623 120.357C222.623 120.357 216.453 123.542 217.687 131.972C218.92 140.401 222.012 144.976 221.953 148.934C221.895 152.892 228.815 170.137 241.229 167.489L245.777 166.282C246.447 167.974 248.115 175.255 247.705 177.359L237.331 181.983L250.228 222.397C250.228 222.397 250.52 212.774 265.786 202.712C281.053 192.65 294.083 174.507 294.083 174.507L282.734 173.474C282.734 173.474 269.139 151.021 267.751 144.545C267.751 144.545 273.302 131.592 261.969 128.354C250.636 125.116 234.277 114.445 222.623 120.357Z" fill="#FFAEC4" stroke="black" stroke-width="1.12821" stroke-miterlimit="10"/>
<path d="M229.745 140.618C229.745 140.618 229.567 144.585 228.672 146.37C227.777 148.154 224.106 149.754 225.404 152.071C226.701 154.387 235.296 151.319 235.296 151.319" stroke="#C18796" stroke-width="1.12821" stroke-miterlimit="10" stroke-linecap="round"/>
<path d="M219.402 123.411C219.402 123.411 223.997 120.402 226.547 124.571C229.097 128.739 239.506 132.16 248.944 129.659C258.381 127.158 254.209 133.42 257.782 135.005C260.094 136.033 260.892 133.361 264.592 131.972C268.293 130.582 269.218 137.447 267.977 139.143C266.736 140.839 265.685 145.805 268.917 149.297C269.787 145.355 270.437 141.368 270.865 137.353C270.865 137.353 274.992 121.746 269.231 113.621C260.61 101.461 246.05 102.672 235.294 104.06C224.539 105.448 216.042 115.348 219.402 123.411Z" fill="url(#paint1_linear)"/>
<path d="M245.628 165.79C245.628 165.79 249.054 165.049 259.73 158.573C259.73 158.573 261.359 159.241 257.147 164.124C252.47 169.545 247.557 174.09 247.557 174.09C247.557 174.09 246.784 168.488 245.628 165.79Z" fill="black"/>
<path d="M223.773 143.581C224.41 143.463 224.817 142.775 224.682 142.044C224.547 141.312 223.92 140.815 223.283 140.933C222.646 141.051 222.239 141.739 222.374 142.47C222.51 143.202 223.136 143.699 223.773 143.581Z" fill="#131A6D"/>
<path d="M239.173 140.051C239.232 139.308 238.755 138.663 238.107 138.611C237.459 138.559 236.885 139.12 236.826 139.863C236.766 140.607 237.244 141.252 237.892 141.304C238.54 141.355 239.113 140.795 239.173 140.051Z" fill="#131A6D"/>
<path d="M238.517 132.49C238.517 132.49 239.754 135.281 243.616 135.004" stroke="#131A6D" stroke-width="1.12821" stroke-miterlimit="10" stroke-linecap="round"/>
<path d="M219.311 138.267C219.311 138.267 222.352 138.538 223.982 135.026" stroke="#131A6D" stroke-width="1.12821" stroke-miterlimit="10" stroke-linecap="round"/>
<path d="M231.798 157.567C233.022 156.546 236.627 154.008 240.824 155.395C241.245 155.529 241.623 155.775 241.916 156.106C242.1 156.295 242.234 156.528 242.304 156.782C242.373 157.037 242.377 157.305 242.315 157.561C241.863 159.218 230.354 162.494 231.048 158.795C231.147 158.311 231.412 157.876 231.798 157.567Z" fill="#131A6D"/>
<path d="M288.229 172.824C288.229 172.824 282.389 189.723 259.171 193.85C259.171 193.85 254.786 209.327 251.691 213.584C251.691 213.584 253.108 193.978 251.691 190.625C251.691 190.625 244.683 184.907 240.813 178.845C240.813 178.845 197.516 191.141 184.231 203.395C184.231 203.395 196.83 176.521 197.599 171.502C197.599 171.502 196.356 160.732 185.649 158.34C185.649 158.34 124.51 191.795 122.962 237.715C121.415 283.635 192.744 250.354 192.744 250.354C192.744 250.354 187.714 287.115 187.971 297.434C188.252 308.632 281.099 310.973 281.099 310.973C281.099 310.973 281.27 313.637 281.53 314.583C281.53 314.583 350.751 354.311 384.46 319.228C418.168 284.144 358.135 169.859 288.229 172.824Z" fill="#FEF7EF" stroke="black" stroke-width="1.12821" stroke-miterlimit="10"/>
<path d="M308.537 243.288C308.537 243.288 332.694 290.673 340.087 299.446C340.087 299.446 323.916 296.005 306.768 293.942C306.768 293.942 325.212 293.555 323.922 285.558C322.655 277.704 299.085 233.909 308.537 243.288Z" fill="black"/>
<path d="M286.646 297.038C286.646 297.038 276.069 293.298 270.909 293.426C265.75 293.553 259.17 297.038 259.17 297.038L275.8 310.576L281.099 310.967C281.099 310.967 282.131 301.682 286.646 297.038Z" fill="white" stroke="black" stroke-width="1.12821" stroke-miterlimit="10"/>
<path d="M193.351 250.063C193.351 250.063 194.736 241.346 195.825 233.572C195.955 232.632 193.99 231.6 192.469 234.084C190.116 237.925 187.879 243.54 183.586 247.12C179.588 250.454 172.983 258.097 163.278 259.66C163.278 259.66 175.207 259.436 193.351 250.063Z" fill="black"/>
<path d="M183.757 203.316C183.757 203.316 177.567 217.762 171.547 225.504C171.547 225.504 168.451 232.211 185.134 213.469C201.816 194.728 207.452 190.497 207.452 190.497C207.452 190.497 196.957 193.419 183.757 203.316Z" fill="black"/>
<path d="M286.646 297.038C286.646 297.038 289.483 294.07 292.708 292.653C292.708 292.653 322.589 295.146 340.093 299.446" fill="#FEF7EF"/>
<path d="M286.646 297.038C286.646 297.038 289.483 294.07 292.708 292.653C292.708 292.653 322.589 295.146 340.093 299.446" stroke="black" stroke-width="1.12821" stroke-miterlimit="10"/>
<path d="M407.24 377.398C419.241 377.398 428.969 367.669 428.969 355.669C428.969 343.668 419.241 333.939 407.24 333.939C395.239 333.939 385.511 343.668 385.511 355.669C385.511 367.669 395.239 377.398 407.24 377.398Z" fill="#FF7F66"/>
<path d="M369.202 391.328C374.702 391.328 379.161 386.869 379.161 381.369C379.161 375.87 374.702 371.411 369.202 371.411C363.703 371.411 359.244 375.87 359.244 381.369C359.244 386.869 363.703 391.328 369.202 391.328Z" stroke="#FF7F66" stroke-width="1.12821" stroke-miterlimit="10"/>
<path d="M179.555 22.0506C179.89 25.4014 373.272 -60.8725 459.098 93.4284" stroke="black" stroke-width="1.12821" stroke-miterlimit="10" stroke-linecap="round"/>
<path d="M464.718 103.441C464.718 103.441 540.96 265.367 446.716 310.969" stroke="black" stroke-width="1.12821" stroke-miterlimit="10" stroke-linecap="round"/>
<path d="M265.191 202.877C266.759 202.877 268.029 201.607 268.029 200.04C268.029 198.473 266.759 197.202 265.191 197.202C263.624 197.202 262.354 198.473 262.354 200.04C262.354 201.607 263.624 202.877 265.191 202.877Z" fill="#2D32E2" fill-opacity="0.24"/>
<path d="M262.352 212.452C263.919 212.452 265.19 211.182 265.19 209.615C265.19 208.048 263.919 206.777 262.352 206.777C260.785 206.777 259.515 208.048 259.515 209.615C259.515 211.182 260.785 212.452 262.352 212.452Z" fill="#2D32E2" fill-opacity="0.24"/>
<path d="M257.646 220.78C259.213 220.78 260.483 219.51 260.483 217.943C260.483 216.376 259.213 215.105 257.646 215.105C256.078 215.105 254.808 216.376 254.808 217.943C254.808 219.51 256.078 220.78 257.646 220.78Z" fill="#2D32E2" fill-opacity="0.24"/>
<path d="M42.7334 264.534C42.7334 264.534 44.8375 275.553 43.2975 283.292C43.2975 283.292 92.444 299.617 107.921 337.281L108.88 329.218C110.883 312.344 105.988 295.313 95.0859 282.279C84.9188 270.132 68.5674 260.209 42.7334 264.534Z" fill="#FEF7EF" stroke="black" stroke-width="1.12821" stroke-miterlimit="10"/>
<path d="M42.7334 264.534L120.899 232.288C120.899 232.288 168.624 242.863 183.586 286.203L107.914 337.28C107.914 337.28 124.769 275.111 42.7334 264.534Z" fill="white" stroke="black" stroke-width="1.12821" stroke-miterlimit="10"/>
<path d="M108.429 334.71C108.429 334.71 115.826 300.994 107.914 286.547C107.914 286.547 112.645 290.976 114.837 296.393C117.029 301.81 117.281 300.951 117.281 300.951C117.281 300.951 117.411 294.33 119.087 292.489C119.087 292.489 121.883 294.811 123.558 293.522C125.233 292.232 127.385 289.481 127.385 289.481C127.385 289.481 128.029 296.188 130.438 294.08C132.847 291.972 132.243 290.254 132.243 290.254C132.243 290.254 135.081 299.413 136.756 296.101C138.432 292.79 138.52 290.46 138.52 290.46C138.52 290.46 140.539 293.943 141.013 292.309C141.487 290.675 144.71 294.244 146.946 291.019C149.181 287.794 149.482 284.957 149.482 284.957C149.482 284.957 149.783 281.674 154.747 284.082C159.711 286.491 158.673 286.26 159.619 283.33C160.565 280.401 161.08 280.549 161.08 280.549C161.08 280.549 162.113 283.501 162.974 281.781C163.835 280.06 166.01 283.702 171.4 278.657C171.4 278.657 173.263 276.822 174.094 276.822C174.094 276.822 172.603 278.829 174.094 279.144C175.585 279.46 178.996 278.768 180.228 276.651C181.459 274.534 181.627 267.663 181.627 267.663C181.627 267.663 185.728 279.72 183.522 286.025L108.429 334.71Z" fill="white" stroke="black" stroke-width="1.12821" stroke-miterlimit="10"/>
<path d="M275.8 310.578C275.8 310.578 282.427 328.253 286.646 335.991L195.28 380.104L191.497 348.115L275.8 310.578Z" fill="#FEF7EF" stroke="black" stroke-width="1.12821" stroke-miterlimit="10"/>
<path d="M107.914 337.281C108.739 330.355 111.853 323.904 116.761 318.949C121.67 313.995 128.092 310.821 135.009 309.931C143.806 308.803 152.718 308.532 157.444 310.967C168.795 316.813 191.497 348.113 191.497 348.113L195.28 380.102C195.28 380.102 136.463 325.412 107.914 337.279V337.281Z" fill="#FEF7EF" stroke="black" stroke-width="1.12821" stroke-miterlimit="10"/>
<path d="M107.914 337.281C107.914 337.281 110.642 322.018 122.932 314.837C136.079 307.158 159.811 308.726 191.497 348.119L275.8 310.582C275.8 310.582 240.664 263.819 183.586 286.207L130.312 309.303C123.016 312.466 117.725 317.561 112.959 323.928C112.959 323.928 109.773 329.169 109.01 331.839L107.914 337.281Z" fill="white" stroke="black" stroke-width="1.12821" stroke-miterlimit="10"/>
<path d="M233.184 84.8898L233.158 83.8951C233.03 81.8643 233.829 79.6098 235.847 77.4568C237.665 75.4824 238.692 74.0421 238.776 72.3272C238.874 70.383 237.718 69.0253 235.318 68.8693C233.946 68.8016 232.398 69.1814 231.409 69.8602L230.614 67.4158C231.956 66.564 234.121 66.06 236.142 66.1597C240.525 66.3778 242.373 69.1833 242.229 72.0809C242.101 74.672 240.557 76.5072 238.622 78.5512C236.845 80.4503 236.149 82.1351 236.178 84.085L236.168 85.0402L233.184 84.8898ZM234.173 92.697C232.876 92.633 232.013 91.5575 232.079 90.2243C232.15 88.8141 233.152 87.8701 234.485 87.9359C235.819 88.0018 236.685 89.0397 236.616 90.4481C236.55 91.7831 235.621 92.7684 234.211 92.7045L234.173 92.697Z" fill="black"/>
<path d="M201.051 100.867L200.448 100.074C199.158 98.5017 198.489 96.2058 198.866 93.2781C199.186 90.6137 199.179 88.8462 198.244 87.4058C197.185 85.7699 195.456 85.3374 193.417 86.6217C192.265 87.3738 191.23 88.581 190.824 89.7092L188.756 88.1899C189.348 86.7138 190.809 85.0403 192.517 83.9403C196.2 81.5542 199.34 82.7501 200.916 85.1851C202.328 87.3626 202.148 89.7525 201.773 92.5429C201.443 95.1227 201.862 96.8959 203.018 98.4679L203.567 99.2482L201.051 100.867ZM206.418 106.623C205.327 107.328 204 106.961 203.272 105.839C202.507 104.656 202.766 103.302 203.889 102.576C205.011 101.851 206.318 102.185 207.085 103.37C207.811 104.498 207.635 105.833 206.45 106.602L206.418 106.623Z" fill="black"/>
<defs>
<linearGradient id="paint0_linear" x1="216.05" y1="120.117" x2="225.726" y2="123.289" gradientUnits="userSpaceOnUse">
<stop stop-color="#2D32E2"/>
<stop offset="0.1556" stop-color="#2C31DC"/>
<stop offset="0.3554" stop-color="#282ECC"/>
<stop offset="0.5794" stop-color="#2228B2"/>
<stop offset="0.8192" stop-color="#1A218E"/>
<stop offset="1" stop-color="#131A6D"/>
</linearGradient>
<linearGradient id="paint1_linear" x1="231.717" y1="105.025" x2="261.546" y2="151.203" gradientUnits="userSpaceOnUse">
<stop stop-color="#2D32E2"/>
<stop offset="0.1556" stop-color="#2C31DC"/>
<stop offset="0.3554" stop-color="#282ECC"/>
<stop offset="0.5794" stop-color="#2228B2"/>
<stop offset="0.8192" stop-color="#1A218E"/>
<stop offset="1" stop-color="#131A6D"/>
</linearGradient>
</defs>
</svg>
