<svg width="1800" height="500" viewBox="0 0 1886 600" fill="none" xmlns="http://www.w3.org/2000/svg">
<path d="M645.105 348.15C595.292 323.012 636.128 314.952 684.181 315.812C661.985 297.816 677.452 281.093 736.036 262.973C762.332 254.838 793.405 260.112 823.503 271.578C849.477 237.256 883.047 214.002 919.287 227.394C949.253 238.471 971.159 251.656 984.451 265.585C994.123 262.849 1004.51 260.286 1015.61 257.947C1039.76 252.846 1057.12 257.294 1069.18 267.403C1117.16 247.366 1165.16 235.892 1192.06 250.565C1238.83 276.1 1243.91 297.287 1211.06 317.721C1259 319.598 1294.39 331.857 1229.95 359.252C1287.25 355.4 1327.67 360.442 1301.73 385.994C1243.85 442.95 987.543 449.125 798.282 420.143C678.088 413.629 578.841 395.533 561.333 365.989C548.437 344.248 590.679 342.223 645.105 348.15Z" fill="#B3B4E2"/>
<path d="M74.7702 454.663C64.2222 438.783 77.1427 424.557 126.766 415.588C180.936 405.792 232.767 409.537 275.438 418.068C174.637 372.214 57.0386 307.049 163.982 295.542C197.32 291.955 248.713 306.57 305.925 330.162C241.959 279.968 206.694 238.148 245.2 228.898C280.952 220.293 354.209 260.426 432.253 314.307C387.697 268.461 361.814 228.03 381.571 207.901C397.715 191.468 432.451 208.571 472.486 241.058C470.535 211.406 482.794 193.047 511.048 195.725C537.617 198.238 559.341 231.924 574.956 272.686C600.045 207.844 667.094 166.487 735.094 183.689C814.964 203.892 751.842 359.425 716.61 433.542L74.7702 454.663Z" fill="#BDBFF0"/>
<path d="M1517.13 310.141C1468.13 331.791 1435.78 375.677 1426.43 425.028C1469.21 451.348 1523.44 456.986 1572.44 435.336C1621.46 413.686 1653.8 369.8 1663.14 320.449C1620.36 294.129 1566.14 288.499 1517.13 310.141Z" fill="#7173D8"/>
<path d="M1644.16 327.947L1435.09 420.316" stroke="white" stroke-width="1.6313" stroke-miterlimit="10"/>
<path d="M1601.14 347.249L1636.22 363.807" stroke="white" stroke-width="1.6313" stroke-miterlimit="10"/>
<path d="M1565.49 363.005L1608.73 383.406" stroke="white" stroke-width="1.6313" stroke-miterlimit="10"/>
<path d="M1529.85 378.752L1602.12 412.868" stroke="white" stroke-width="1.6313" stroke-miterlimit="10"/>
<path d="M1494.2 394.5L1564.52 427.698" stroke="white" stroke-width="1.6313" stroke-miterlimit="10"/>
<path d="M1458.55 410.248L1497.7 428.731" stroke="white" stroke-width="1.6313" stroke-miterlimit="10"/>
<path d="M1605.17 344.728L1616.54 307.644" stroke="white" stroke-width="1.6313" stroke-miterlimit="10"/>
<path d="M1569.53 360.475L1587.25 302.66" stroke="white" stroke-width="1.6313" stroke-miterlimit="10"/>
<path d="M1533.87 376.231L1556.07 303.85" stroke="white" stroke-width="1.6313" stroke-miterlimit="10"/>
<path d="M1498.23 391.979L1521.03 317.639" stroke="white" stroke-width="1.6313" stroke-miterlimit="10"/>
<path d="M1462.57 407.726L1482.17 343.868" stroke="white" stroke-width="1.6313" stroke-miterlimit="10"/>
<path d="M1358.83 295.344C1325.29 344.108 1320.31 404.139 1340.13 455.969C1395.62 455.928 1449.89 429.789 1483.43 381.017C1516.97 332.245 1521.95 272.214 1502.13 220.384C1446.64 220.433 1392.37 246.572 1358.83 295.344Z" fill="#7173D8"/>
<path d="M1488.61 238.454L1345.53 446.521" stroke="white" stroke-width="1.8023" stroke-miterlimit="10"/>
<path d="M1459.35 281.539L1501.94 276.778" stroke="white" stroke-width="1.8023" stroke-miterlimit="10"/>
<path d="M1434.96 317.019L1487.45 311.149" stroke="white" stroke-width="1.8023" stroke-miterlimit="10"/>
<path d="M1410.55 352.498L1498.31 342.686" stroke="white" stroke-width="1.8023" stroke-miterlimit="10"/>
<path d="M1386.15 387.97L1471.54 378.438" stroke="white" stroke-width="1.8023" stroke-miterlimit="10"/>
<path d="M1361.76 423.449L1409.3 418.142" stroke="white" stroke-width="1.8023" stroke-miterlimit="10"/>
<path d="M1461.67 276.827L1450.87 235.363" stroke="white" stroke-width="1.8023" stroke-miterlimit="10"/>
<path d="M1437.28 312.307L1420.44 247.655" stroke="white" stroke-width="1.8023" stroke-miterlimit="10"/>
<path d="M1412.88 347.795L1391.81 266.849" stroke="white" stroke-width="1.8023" stroke-miterlimit="10"/>
<path d="M1388.49 383.266L1366.83 300.13" stroke="white" stroke-width="1.8023" stroke-miterlimit="10"/>
<path d="M1364.08 418.746L1345.49 347.323" stroke="white" stroke-width="1.8023" stroke-miterlimit="10"/>
<path d="M1459.52 429.434C1327.27 428.351 917.493 423.614 668.805 409.313C207.694 382.811 -168.974 427.128 78.4073 477.462C147.54 491.523 -51.9216 576.089 436.196 594.978C864.679 611.552 1301.49 575.519 1512.91 560.044C1724.33 544.561 1821.9 517.199 1867.2 504.865C1907.04 494.02 1921.78 433.203 1459.52 429.434Z" fill="#E8E9FF"/>
<path d="M322.135 239.421C322.135 239.421 315.001 234.66 312.736 226.89C311.918 224.071 312.86 218.524 315.803 217.664C318.729 216.813 322.135 219.706 323.325 223.798C325.59 231.577 322.135 239.421 322.135 239.421Z" fill="#7173D8"/>
<path d="M326.847 252.094C326.847 252.094 325.681 244.695 329.368 238.76C330.707 236.611 334.882 234.065 337.188 235.495C339.486 236.933 339.651 240.827 337.709 243.951C334.006 249.879 326.847 252.094 326.847 252.094Z" fill="#7173D8"/>
<path d="M329.368 267.676C329.368 267.676 331.319 260.435 337.106 256.533C339.205 255.111 344.066 254.499 345.579 256.748C347.091 258.996 345.645 262.617 342.603 264.675C336.808 268.577 329.368 267.676 329.368 267.676Z" fill="#7173D8"/>
<path d="M326.748 252.516C326.748 252.516 320.06 254.4 313.488 252.053C311.099 251.209 307.586 248.043 308.33 245.96C309.074 243.869 312.711 243.257 316.175 244.489C322.755 246.836 326.748 252.516 326.748 252.516Z" fill="#7173D8"/>
<path d="M330.36 267.494C330.36 267.494 323.598 269.594 317.018 267.246C314.629 266.403 311.149 263.138 311.934 260.931C312.728 258.724 316.398 258.013 319.862 259.244C326.45 261.592 330.36 267.494 330.36 267.494Z" fill="#7173D8"/>
<path d="M331.493 288.698C331.493 288.698 325.987 291.252 320.97 289.458C319.143 288.813 316.646 285.904 317.432 283.688C318.217 281.481 321.168 280.506 323.813 281.448C328.839 283.242 331.493 288.698 331.493 288.698Z" fill="#7173D8"/>
<path d="M332.328 288.557C332.328 288.557 333.344 282.853 337.519 279.018C339.032 277.629 342.719 276.389 344.016 277.827C345.331 279.257 344.471 282.184 342.272 284.209C338.098 288.036 332.328 288.557 332.328 288.557Z" fill="#7173D8"/>
<path d="M354.548 371.288C356.333 371.461 357.482 371.056 357.557 371.023L357.069 369.684L357.317 370.345L357.077 369.676C356.945 369.725 353.903 370.751 349.943 367.998C345.521 364.906 341.834 358.475 338.999 348.886C335.105 335.726 332.981 316.944 332.666 293.046C332.294 265.287 327.087 251.085 323.64 241.695C322.763 239.289 321.994 237.206 321.507 235.387L320.135 235.751C320.631 237.628 321.408 239.736 322.3 242.174C325.714 251.482 330.881 265.543 331.236 293.062C331.939 346.265 341.396 363.84 349.199 369.213C351.249 370.627 353.101 371.147 354.548 371.288Z" fill="#7173D8"/>
<path d="M1266.35 128.155C1266.35 128.155 1264.08 117.194 1269.11 107.894C1270.94 104.521 1276.91 100.239 1280.41 102.14C1283.91 104.025 1284.43 109.845 1281.78 114.739C1276.75 124.047 1266.35 128.155 1266.35 128.155Z" fill="#7173D8"/>
<path d="M1259.1 144.258C1259.1 144.258 1264.8 136.306 1273.67 134.181C1276.89 133.412 1283.1 134.867 1283.92 138.323C1284.75 141.77 1281.33 145.539 1276.66 146.655C1267.78 148.78 1259.1 144.258 1259.1 144.258Z" fill="#7173D8"/>
<path d="M1247.17 161.047C1247.17 161.047 1255.62 156.112 1264.58 157.798C1267.83 158.41 1272.9 162.279 1272.25 165.759C1271.59 169.239 1266.94 171.281 1262.21 170.397C1253.24 168.71 1247.17 161.047 1247.17 161.047Z" fill="#7173D8"/>
<path d="M1258.62 144.556C1258.62 144.556 1250.69 140.174 1246.72 131.966C1245.28 128.99 1244.92 122.823 1247.52 121.575C1250.13 120.31 1254.07 123.079 1256.16 127.403C1260.13 135.62 1258.62 144.556 1258.62 144.556Z" fill="#7173D8"/>
<path d="M1248.25 161.783C1248.25 161.783 1240.03 157.534 1236.07 149.325C1234.63 146.358 1234.39 140.133 1237.14 138.802C1239.9 137.471 1243.96 140.174 1246.05 144.506C1250.03 152.715 1248.25 161.783 1248.25 161.783Z" fill="#7173D8"/>
<path d="M1229.86 182.523C1229.86 182.523 1222.4 179.862 1219.38 173.596C1218.28 171.314 1218.62 166.313 1221.38 164.982C1224.14 163.651 1227.77 165.461 1229.36 168.76C1232.39 175.034 1229.86 182.523 1229.86 182.523Z" fill="#7173D8"/>
<path d="M1230.76 183.168C1230.76 183.168 1236.93 178.803 1244.32 179.068C1247 179.167 1251.56 181.383 1251.46 183.929C1251.37 186.466 1247.88 188.393 1243.98 188.252C1236.59 187.971 1230.76 183.168 1230.76 183.168Z" fill="#7173D8"/>
<path d="M1175.54 280.398C1177.04 282.192 1178.47 282.87 1178.58 282.919L1179.35 281.233L1178.96 282.068L1179.36 281.233C1179.19 281.159 1175.42 279.315 1174.27 273.14C1172.99 266.205 1175.47 256.855 1181.63 245.34C1190.09 229.551 1205.34 210.142 1226.96 187.649C1252.07 161.527 1260.25 143.555 1265.67 131.66C1267.06 128.61 1268.26 125.981 1269.47 123.856L1267.86 122.939C1266.6 125.138 1265.38 127.808 1263.97 130.899C1258.62 142.679 1250.52 160.469 1225.62 186.367C1177.49 236.437 1170.15 261.435 1172.47 273.587C1173.08 276.769 1174.33 278.952 1175.54 280.398Z" fill="#7173D8"/>
<path d="M1431.46 444.537H1181.71V471.808H1431.46V444.537Z" fill="#0450CF"/>
<path d="M1411.82 413.405H1226.19V444.545H1411.82V413.405Z" fill="#212957"/>
<path d="M1411.82 413.405C1387.27 413.405 1362.72 413.405 1338.17 413.405C1344.69 405.767 1344.69 394.516 1338.17 386.87C1362.72 386.87 1387.27 386.87 1411.82 386.87C1418.35 394.508 1418.35 405.759 1411.82 413.405Z" fill="#FD2227"/>
<path d="M1207.95 413.405C1251.36 413.405 1294.77 413.405 1338.18 413.405C1344.7 405.767 1344.7 394.516 1338.18 386.87C1294.77 386.87 1251.36 386.87 1207.95 386.87C1214.47 394.508 1214.47 405.759 1207.95 413.405Z" fill="#EAF4FE"/>
<path d="M1253.98 386.871H1404.98V354.64H1253.98V386.871Z" fill="#9AC7F7"/>
<path d="M1223.06 354.639C1293.69 354.639 1364.32 354.639 1434.95 354.639C1443.15 345.033 1443.15 330.898 1434.95 321.292C1364.32 321.292 1293.69 321.292 1223.06 321.292C1231.26 330.898 1231.26 345.042 1223.06 354.639Z" fill="#7EB3FF"/>
<path d="M1247.87 321.292H1419.9V299.452H1247.87V321.292Z" fill="#0450CF"/>
<path d="M1210 299.454H1391.49V290.179H1210V299.454Z" fill="#DD000B"/>
<path d="M1245.37 290.178H1374.61V272.347H1245.37V290.178Z" fill="#9AC7F7"/>
<path d="M1252.63 272.354H1404.33V240.504L1252.63 240.504V272.354Z" fill="#003E99"/>
<path d="M1235.08 240.496L1357.87 240.496V218.532H1235.08V240.496Z" fill="#7EB3FF"/>
<path d="M1225.78 325.144C1230.35 333.064 1230.35 342.868 1225.78 350.779C1255.71 350.779 1285.65 350.779 1315.58 350.779C1321.89 343.397 1321.89 332.526 1315.58 325.144C1285.65 325.144 1255.71 325.144 1225.78 325.144Z" fill="#EAF4FE"/>
<path d="M1358.73 94.1137C1358.73 94.1137 1338.83 76.2417 1354.18 47.8795C1362.69 32.1567 1358.23 -10.804 1330.68 2.52976C1303.13 15.8635 1310.6 -0.760287 1295.04 6.65472C1279.47 14.0697 1272.59 25.2212 1274.69 37.3976C1276.79 49.5576 1275.43 72.7532 1265.87 77.2171C1256.3 81.6727 1210.47 106.613 1240.01 138.116C1269.54 169.619 1376.93 146.482 1358.73 94.1137Z" fill="#131A6D"/>
<path d="M1303.91 50.2355C1303.91 50.2355 1308.28 72.1168 1305.36 79.8955C1302.44 87.6742 1325.29 81.8381 1325.29 81.8381C1325.29 81.8381 1324.32 63.8503 1323.84 59.9568C1323.36 56.0716 1303.91 50.2355 1303.91 50.2355Z" fill="#FFAEC4"/>
<path d="M1323.85 59.9568C1323.36 56.0633 1303.92 50.2355 1303.92 50.2355C1303.92 50.2355 1318.06 70.7363 1322.88 71.1413C1323.54 71.1992 1324.14 71.1826 1324.69 71.1165C1324.39 66.4956 1324.07 61.7424 1323.85 59.9568Z" fill="#D993A6"/>
<path d="M1336 28.3542C1336 28.3542 1337.45 48.2847 1335.02 54.1208C1332.59 59.9569 1331.62 64.3298 1325.79 63.8421C1319.95 63.3544 1310.72 54.6085 1305.37 51.2027C1300.02 47.7969 1296.13 43.9117 1298.08 39.051C1300.02 34.1904 1302.45 38.0756 1302.45 39.5388C1302.45 40.9936 1317.52 43.4322 1329.19 36.133C1332.1 34.3144 1336.49 31.2723 1336 28.3542Z" fill="#FFAEC4"/>
<path d="M1336.64 183.284L1418.79 161.345C1418.79 161.345 1443.17 153.153 1437.77 182.631C1432.4 211.902 1416.84 299.965 1416.84 299.965L1446.02 318.118H1404.53L1398.86 201.429C1398.86 201.429 1368.39 218.284 1352.19 220.227C1335.98 222.169 1303.57 222.169 1304.87 213.746C1306.17 205.331 1336.64 183.284 1336.64 183.284Z" fill="#212957"/>
<path d="M1383.32 300.618C1383.32 300.618 1382.68 306.942 1382.68 308.884C1382.68 310.827 1386.89 316.341 1387.22 317.961C1387.54 319.581 1387.54 319.581 1387.54 319.581H1355.77C1355.77 319.581 1355.13 316.341 1360.31 312.125C1365.49 307.909 1367.11 304.991 1367.77 299.642C1368.42 294.302 1383.32 300.618 1383.32 300.618Z" fill="#C5E1F9"/>
<path d="M1326.76 81.3503C1326.76 81.3503 1345.23 84.2684 1347.66 91.5594C1350.09 98.8504 1349.12 103.232 1349.12 106.629C1349.13 110.035 1325.78 94.4775 1326.76 81.3503Z" fill="#F1BF13"/>
<path d="M1306.83 78.9118L1326.76 81.3421C1326.76 81.3421 1349.12 104.678 1353.99 105.654C1358.85 106.629 1352.3 159.865 1353.5 167.073C1354.14 170.967 1336 172.744 1326.27 174.207C1316.55 175.662 1302.93 174.207 1302.93 174.207C1302.93 174.207 1307.79 158.65 1304.39 142.605C1300.98 126.56 1285.91 114.408 1289.32 103.223C1292.72 92.0472 1283 92.0472 1306.83 78.9118Z" fill="#FBCE06"/>
<path d="M1292.72 92.0471C1292.72 92.0471 1298.07 107.117 1297.1 116.846C1296.12 126.568 1293.2 150.392 1293.2 150.392C1293.2 150.392 1287.37 178.109 1276.18 174.703C1265 171.298 1265.97 139.695 1273.75 119.765C1281.54 99.8258 1289.32 87.1782 1292.72 92.0471Z" fill="#F1BF13"/>
<path d="M1270.59 165.048C1270.59 165.048 1271.07 170.636 1271.07 171.851C1271.07 173.067 1276.42 174.522 1282.01 174.522C1287.6 174.522 1328.93 150.698 1332.82 148.995C1336.71 147.292 1332.09 140.001 1332.09 140.001C1332.09 140.001 1307.05 144.622 1297.08 148.995C1287.12 153.384 1275.45 158.733 1270.59 165.048Z" fill="#FFAEC4"/>
<path d="M1302.93 174.207H1326.27L1402.11 157.997C1402.11 157.997 1422.21 151.516 1415.07 170.959C1407.94 190.41 1382.66 297.369 1382.66 297.369L1367.75 296.071C1367.75 296.071 1370.34 225.41 1377.47 213.093C1384.6 200.776 1385.25 196.882 1385.25 196.882C1385.25 196.882 1337.92 222.161 1318.48 220.871C1299.05 219.59 1282.84 204.677 1302.93 174.207Z" fill="#3B47BC"/>
<path d="M1308.77 175.505C1308.77 175.505 1292.56 196.246 1304.23 202.735C1315.9 209.216 1398.23 174.207 1398.23 174.207C1398.23 174.207 1370.35 246.167 1373.59 293.492" stroke="#8DCFFF" stroke-width="0.4139" stroke-miterlimit="10"/>
<path d="M1385.79 84.1443L1380.71 90.1127L1384.75 93.4606L1385.28 92.0057L1385.79 84.1443Z" fill="#E3F4FF"/>
<path d="M1344.09 86.9302L1347.22 82.9954C1347.22 82.9954 1364.34 82.3175 1371.02 84.4999C1377.7 86.6822 1384.79 92.51 1384.79 92.51C1384.79 92.51 1383.9 86.9963 1385.29 84.6486C1386.2 83.1111 1389.95 80.0194 1392.91 78.8539C1395.98 77.647 1402.48 76.1177 1402.48 76.1177L1406.06 78.3662L1389.53 97.503L1379.4 99.3712L1344.09 86.9302Z" fill="#EAF4FE"/>
<path d="M1343.1 86.955C1343.1 86.955 1363.1 85.5745 1369.42 87.1947C1375.42 88.7323 1380.54 90.1789 1382.62 94.775L1361.57 131.255C1361.57 131.255 1352.12 128.568 1344.06 129.18C1336 129.783 1322.97 130.718 1322.97 130.718L1343.1 86.955Z" fill="#2D32DD"/>
<path d="M1387.39 95.3372C1387.39 95.3372 1385.8 92.8242 1388.81 89.3358C1391.84 85.8473 1397.55 78.5398 1407.72 78.3331C1407.94 78.3249 1392.57 122.104 1392.57 122.104L1370.01 127.32L1367.35 127.262L1387.39 95.3372Z" fill="#2D32DD"/>
<path d="M1382.63 94.775L1387.39 95.3371L1367.4 129.147L1363.1 129.345L1362.85 128.238L1382.63 94.775Z" fill="#0450CF"/>
<path d="M1353.41 138.744L1353.68 135.148C1355.85 133.983 1358.71 132.206 1361.61 129.511C1364.37 126.948 1366.01 124.642 1366.56 124.964C1366.92 125.171 1366.82 126.477 1364.97 131.073" fill="#D993A6"/>
<path d="M1341.23 128.899L1347.17 126.386L1350.77 122.633C1350.77 122.633 1354.95 117.417 1357.65 115.904C1360.35 114.391 1361.54 113.689 1362.4 114.011C1363.26 114.333 1364.3 115.003 1363.81 115.697C1363.31 116.392 1361.11 117.632 1359.19 120.244C1357.28 122.848 1356.71 124.055 1354.94 125.295C1353.17 126.526 1350.92 129.569 1350.92 129.569C1350.92 129.569 1351.46 130.668 1352.14 130.916C1352.83 131.156 1358.83 127.27 1359.76 126.741C1360.69 126.212 1366.9 120.269 1366.9 120.269L1369.83 117.218C1369.83 117.218 1371.7 116.408 1372.31 117.251C1372.93 118.095 1372.25 118.277 1370.83 120.277C1369.42 122.277 1368.6 124.088 1368.6 124.088L1367.34 125.485L1362.58 130.974L1354.71 135.413C1354.71 135.413 1354.41 137.389 1354.42 137.727C1354.42 138.066 1354.26 138.587 1353.41 138.777C1352.56 138.967 1347.36 140.439 1346.02 141.497C1344.67 142.555 1342.04 143.63 1341.62 143.894C1341.2 144.159 1340.21 145.944 1339.79 146.548C1339.38 147.151 1330.56 149.954 1330.56 149.954L1328.34 146.903L1327.31 142.472L1330.99 138.381L1334.57 129.321L1341.23 128.899Z" fill="#FFAEC4"/>
<path d="M1490.4 155.351L1530.52 213.432L1563.52 215.49L1567.23 214.043L1567.54 213.018L1603.2 185.392L1561.17 143.696L1559 144.936L1540.63 161.849L1525.16 166.288L1498.24 157.823L1491.43 154.112L1490.4 155.351Z" fill="#0561FC"/>
<path d="M1554.36 144.936H1559L1600.16 186.508L1594.9 187.02L1554.36 144.936Z" fill="#55E1F9"/>
<path d="M1501.39 152.665C1501.39 152.665 1496.37 155.062 1493.7 155.657C1493.23 155.757 1534.14 214.043 1534.14 214.043C1534.14 214.043 1562.3 213.837 1563.43 214.043C1564.57 214.25 1600.16 186.499 1600.16 186.499L1594.9 187.012L1555.08 206.513L1501.39 152.665Z" fill="#9AC7F7"/>
<path d="M1501.39 152.665L1540.17 207.959C1540.17 207.959 1558.02 208.166 1560.28 209.505C1562.56 210.844 1564.1 212.39 1564.1 212.39L1522.12 160.609C1522.12 160.609 1515.21 154.731 1501.39 152.665Z" fill="#55E1F9"/>
<path d="M1554.36 144.936C1554.36 144.936 1548.17 147.928 1545.07 148.962C1541.98 149.995 1534.76 154.326 1531.76 157.418C1528.77 160.51 1525.78 165.255 1525.78 165.255L1563.64 212.398C1563.64 212.398 1572 202.908 1577.46 199.817C1582.93 196.725 1595.61 187.128 1595.61 187.128L1554.36 144.936Z" fill="#EAF4FE"/>
<path d="M1616.66 172.066L1609.34 172.48L1594.69 166.395C1594.69 166.395 1594.38 166.189 1591.7 166.809C1589.02 167.429 1584.07 168.255 1583.24 168.255C1582.41 168.255 1580.25 168.669 1579.01 168.561C1577.77 168.462 1576.12 168.355 1576.12 168.355C1576.12 168.355 1574.78 169.487 1576.33 170.826C1577.87 172.165 1579.94 173.306 1581.9 173.199C1583.86 173.1 1585.51 172.893 1586.55 172.785C1587.58 172.686 1590.05 172.686 1590.05 172.686L1602.84 184.656L1603.46 185.375L1601.5 187.235C1601.5 187.235 1605.11 187.442 1607.58 186.615C1610.06 185.789 1611.2 185.582 1611.71 185.375C1612.22 185.169 1616.25 184.962 1616.25 184.962C1616.25 184.962 1619.76 178.977 1616.66 172.066Z" fill="#FFAEC4"/>
<path d="M1541 210.679C1541 210.679 1539.04 206.165 1538.06 204.735C1537.09 203.305 1535.28 201.652 1534.75 200.594C1534.22 199.544 1533.62 195.254 1533.62 195.022C1533.62 194.799 1532.41 193.972 1532.34 193.592C1532.26 193.212 1531.95 192.617 1531.95 192.311C1531.95 192.013 1530.82 191.559 1530 192.013C1529.17 192.468 1528.57 193.146 1528.64 193.898C1528.71 194.65 1529.39 195.551 1529.17 197.138C1528.95 198.717 1529.85 198.717 1528.71 200.379C1527.58 202.032 1526.68 202.784 1526.68 202.784L1523.67 202.33L1517.73 193.452C1517.73 193.452 1517.43 202.487 1517.43 204.438C1517.43 206.397 1517.13 206.918 1517.81 207.976C1518.49 209.026 1519.17 209.183 1519.17 209.629C1519.17 210.084 1518.12 210.91 1518.34 212.192C1518.56 213.473 1520.9 214.374 1522.03 215.201C1523.16 216.027 1527.82 219.193 1531.14 221.673C1534.45 224.153 1534.45 224.385 1535.43 224.757C1536.4 225.137 1544.99 224.137 1544.99 224.137C1544.99 224.137 1544.84 216.176 1544.69 213.613C1544.54 211.051 1544.52 212.142 1544.52 212.142L1541 210.679Z" fill="#FFAEC4"/>
<path d="M1620.65 97.2302C1620.65 97.2302 1614.11 107.555 1606.96 108.092C1599.82 108.638 1596.25 91.7908 1596.25 80.3831C1596.25 68.9754 1608.75 58.1133 1609.94 54.8481C1611.13 51.5911 1623.63 62.4532 1623.63 72.2324C1623.63 82.0116 1620.65 94.5188 1620.65 97.2302Z" fill="#FFAEC4"/>
<path d="M1664.61 452.969C1664.61 452.969 1665.23 459.003 1665.23 460.863C1665.23 462.723 1661.2 467.98 1660.89 469.526C1660.59 471.072 1660.59 471.072 1660.59 471.072H1690.91C1690.91 471.072 1691.53 467.98 1686.58 463.955C1681.63 459.929 1680.08 457.143 1679.46 452.043C1678.84 446.934 1664.61 452.969 1664.61 452.969Z" fill="#55E1F9"/>
<path d="M1611.54 453.746L1614.63 470.452H1567.29C1567.29 470.452 1566.98 465.195 1572.54 463.649C1578.11 462.103 1593.27 457.457 1597.3 452.506C1601.33 447.554 1611.54 453.746 1611.54 453.746Z" fill="#55E1F9"/>
<path d="M1665.86 452.505L1619.45 285.879L1612.49 213.473V209.298L1638.94 209.761C1638.94 209.761 1655.65 227.865 1655.18 251.532C1654.72 275.207 1653.79 328.583 1657.51 338.792C1661.22 349.001 1670.96 366.179 1671.9 376.851C1672.82 387.523 1677.47 451.58 1677.47 451.58L1665.86 452.505Z" fill="#212957"/>
<path d="M1584.64 210.224C1584.64 210.224 1575.35 226.005 1577.68 253.854C1580 281.704 1598.1 451.58 1598.1 451.58L1612.02 452.043C1612.02 452.043 1616.66 387.06 1614.81 371.279C1612.95 355.499 1607.85 339.255 1608.31 336.469C1608.77 333.684 1637 254.458 1631.99 240.388C1629.42 233.18 1620.84 210.216 1619.45 209.753C1618.06 209.298 1584.64 210.224 1584.64 210.224Z" fill="#3B47BC"/>
<path d="M1586.03 219.507C1586.03 219.507 1585.11 310.943 1590.67 335.544C1596.24 360.145 1601.81 430.227 1601.81 440.436" stroke="#51D4F9" stroke-width="0.8124" stroke-miterlimit="10"/>
<path d="M1647.3 124.823C1647.3 124.823 1658.9 134.107 1649.62 161.493C1640.34 188.88 1636.62 203.727 1634.76 204.198C1632.9 204.661 1623.16 206.521 1619.91 202.809C1616.66 199.098 1613.87 195.849 1614.34 193.526C1614.8 191.203 1625.26 132.181 1626.41 126.692C1628.73 115.54 1644.05 123.426 1647.3 124.823Z" fill="#9AC7F7"/>
<path d="M1589.75 127.138L1603.2 120.178L1628.27 119.715C1628.27 119.715 1641.26 121.575 1646.83 133.636C1648.75 137.785 1644.05 198.155 1643.58 206.504C1643.12 214.862 1650.83 219.747 1649.34 224.128C1640.87 248.804 1576.72 231.18 1576.72 231.18C1576.72 231.18 1580.46 134.57 1589.75 127.138Z" fill="#55E1F9"/>
<path d="M1631.52 95.1139L1629.66 120.178C1629.66 120.178 1630.61 123.666 1622.7 124.352C1612.02 125.278 1607.38 121.104 1607.38 121.104C1607.38 121.104 1613.41 109.498 1612.49 93.7169C1611.56 77.9445 1631.52 95.1139 1631.52 95.1139Z" fill="#FFAEC4"/>
<path d="M1612.95 48.2349C1612.95 48.2349 1626.51 44.9779 1639.87 55.1952C1647.77 61.2297 1652.41 71.9017 1648.23 80.722C1644.06 89.5423 1634.77 101.148 1630.13 101.148C1625.48 101.148 1615.27 94.1881 1613.88 91.4023C1612.49 88.6165 1612.49 86.7648 1611.56 80.7303C1610.63 74.6958 1607.39 76.5557 1607.39 77.9445C1607.39 79.3333 1605.53 83.5161 1604.6 80.7303C1603.67 77.9445 1584.64 57.981 1612.95 48.2349Z" fill="#212957"/>
<path d="M1642.43 69.1242C1653.58 69.1242 1662.61 60.3972 1662.61 49.6319C1662.61 38.8666 1653.58 30.1396 1642.43 30.1396C1631.28 30.1396 1622.24 38.8666 1622.24 49.6319C1622.24 60.3972 1631.28 69.1242 1642.43 69.1242Z" fill="#212957"/>
<path d="M1578.61 198.891L1542.16 212.853C1542.16 212.853 1531.05 225.79 1537.58 225.195C1545.34 224.492 1576.87 218.739 1576.87 218.739C1576.87 218.739 1599.22 199.453 1578.61 198.891Z" fill="#FFAEC4"/>
<path d="M1590.82 127.849C1590.82 127.849 1603.93 134.834 1599.85 163.461C1595.77 192.088 1594.86 207.372 1593.12 208.166C1591.38 208.968 1582.14 212.58 1578.26 209.53C1574.39 206.479 1571.05 203.801 1571.08 201.429C1571.1 199.064 1579.67 146.457 1581.01 141.009C1582.35 135.578 1587.37 127.08 1590.82 127.849Z" fill="#9AC7F7"/>
</svg>
