<svg width="8" height="10" viewBox="0 0 14 16" fill="none" xmlns="http://www.w3.org/2000/svg">
<path d="M0.552 16V15.496L0.936 15.376C1.272 15.248 1.496 15.08 1.608 14.872C1.736 14.664 1.8 14.384 1.8 14.032C1.816 13.12 1.824 12.208 1.824 11.296C1.824 10.368 1.824 9.44 1.824 8.512V7.648C1.824 6.72 1.816 5.8 1.8 4.888C1.8 3.96 1.8 3.032 1.8 2.104C1.8 1.72 1.744 1.432 1.632 1.24C1.52 1.032 1.288 0.871999 0.936 0.759999L0.552 0.639999V0.136H7.32C9.24 0.136 10.632 0.495999 11.496 1.216C12.36 1.92 12.792 2.816 12.792 3.904C12.792 4.736 12.488 5.488 11.88 6.16C11.272 6.816 10.208 7.288 8.688 7.576C10.448 7.768 11.72 8.224 12.504 8.944C13.288 9.664 13.68 10.544 13.68 11.584C13.68 12.096 13.568 12.616 13.344 13.144C13.12 13.656 12.736 14.128 12.192 14.56C11.664 14.992 10.944 15.344 10.032 15.616C9.12 15.872 7.968 16 6.576 16H0.552ZM5.232 7.408H6.36C7.448 7.408 8.232 7.168 8.712 6.688C9.208 6.192 9.456 5.352 9.456 4.168C9.456 2.936 9.232 2.072 8.784 1.576C8.336 1.08 7.632 0.831999 6.672 0.831999H5.232V7.408ZM5.232 15.304H6.552C7.752 15.304 8.648 15.008 9.24 14.416C9.832 13.824 10.128 12.872 10.128 11.56C10.128 10.296 9.84 9.408 9.264 8.896C8.704 8.368 7.776 8.104 6.48 8.104H5.232V15.304Z" fill="#2D32E2"/>
</svg>
